<svg xmlns="http://www.w3.org/2000/svg" width="256" height="256" viewBox="0 0 100 100"><rect width="100" height="100" rx="50" fill="#336496"></rect><path fill="#ffffff" d="M64.13 73.89L60.71 63.54L38.75 63.54L34.34 77.31Q33.53 77.67 32.63 77.85Q31.73 78.03 30.47 78.03L30.47 78.03Q28.22 78.03 26.78 77.04Q25.34 76.05 25.34 74.07L25.34 74.07Q25.34 73.08 25.61 72.14Q25.88 71.19 26.33 70.02L26.33 70.02Q27.50 66.24 29.62 60.26Q31.73 54.27 34.12 47.61Q36.50 40.95 38.93 34.52Q41.36 28.08 43.16 23.49L43.16 23.49Q44.06 22.95 45.95 22.46Q47.84 21.96 49.82 21.96L49.82 21.96Q52.43 21.96 54.50 22.68Q56.57 23.40 57.29 25.20L57.29 25.20Q59.27 30.33 61.61 36.86Q63.95 43.38 66.29 50.31Q68.63 57.24 70.79 63.90Q72.95 70.56 74.66 75.96L74.66 75.96Q73.85 76.86 72.55 77.45Q71.24 78.03 69.44 78.03L69.44 78.03Q67.01 78.03 65.93 77.09Q64.85 76.14 64.13 73.89L64.13 73.89ZM50.18 30.33L49.73 30.33Q48.83 32.76 47.75 35.82Q46.67 38.88 45.50 42.26Q44.33 45.63 43.16 49.10Q41.99 52.56 40.91 55.80L40.91 55.80L58.64 55.80Q57.47 52.20 56.26 48.56Q55.04 44.91 53.92 41.58Q52.79 38.25 51.80 35.33Q50.81 32.40 50.18 30.33L50.18 30.33Z"></path></svg>